<svg width="236" height="84" viewBox="0 0 236 84" fill="none" xmlns="http://www.w3.org/2000/svg">
<path d="M63.3615 54.4414C63.3615 54.4414 71.8469 46.7387 73.7827 45.01C77.4782 41.7097 73.1636 38.1864 70.5844 38.7812C66.9819 39.6122 62.7785 42.3478 58.3531 44.8236C58.3531 44.8236 41.7993 49.6835 36.1689 58.3721C28.1142 70.8017 45.0871 81.0175 45.0871 81.0175C52.3443 74.1188 58.7918 69.3324 66.3407 65.8601C71.85 63.326 77.6313 60.7751 79.5054 60.3305C83.4122 59.4032 85.7617 51.4473 86.8372 46.2873C87.8404 41.4744 90.6499 31.0003 86.5129 31C82.7459 30.9999 81.2809 34.8733 80.7112 37.8858C80.1232 40.9953 79.2899 44.0534 78.128 46.9969L77.8997 47.5753L67.4607 50.7233" fill="#FC9E2D"/>
<path d="M63.3615 54.4414C63.3615 54.4414 71.8469 46.7387 73.7827 45.01C77.4782 41.7097 73.1636 38.1864 70.5844 38.7812C66.9819 39.6122 62.7785 42.3478 58.3531 44.8236C58.3531 44.8236 41.7993 49.6835 36.1689 58.3721C28.1142 70.8017 45.0871 81.0175 45.0871 81.0175C52.3443 74.1188 58.7918 69.3324 66.3407 65.8601C71.85 63.326 77.6313 60.7751 79.5054 60.3305C83.4122 59.4032 85.7617 51.4473 86.8372 46.2873C87.8404 41.4744 90.6499 31.0003 86.5129 31C82.7459 30.9999 81.2809 34.8733 80.7112 37.8858C80.1232 40.9953 79.2899 44.0534 78.128 46.9969L77.8997 47.5753L67.4607 50.7233" stroke="white" stroke-width="4" stroke-miterlimit="10"/>
<path d="M35.8105 59.2212C41.4409 50.5326 57.9945 45.6727 57.9945 45.6727C62.4202 43.1968 66.6235 40.4612 70.2259 39.6303C72.8051 39.0353 77.1199 42.5587 73.4243 45.8591C71.4884 47.5878 67.1022 51.5724 67.1022 51.5724L77.5412 48.4243L77.7695 47.8458C78.9315 44.9024 79.7648 41.8442 80.3528 38.7348C80.9225 35.7223 82.3875 31.8488 86.1546 31.849C87.2822 31.8492 87.8912 32.6309 88.1637 33.8609C89.7404 28.4042 89.4277 24.9003 89.4277 24.9003H89.4247C89.4377 24.5935 89.449 24.2862 89.449 23.9763C89.449 11.5432 78.9628 0.766083 66.027 0.766083C56.5695 0.766083 48.4267 6.85506 44.7289 14.6117H44.7243C41.0263 6.85506 32.8836 0.766083 23.4261 0.766083C10.4904 0.766083 0.00412856 11.5432 0.00412856 23.9763C0.00412856 24.2862 0.015544 24.5935 0.0285158 24.9003H0.0254011C0.0254011 24.9003 -1.29692 39.67 15.1397 55.7954C21.2893 61.9571 28.0412 67.8692 37.9041 75.9999C34.3358 71.8443 31.5165 65.8476 35.8105 59.2212Z" fill="white"/>
<path d="M126.619 56.1324C124.994 56.1324 123.523 55.732 122.204 54.9313C120.908 54.1306 119.884 52.9766 119.13 51.4694C118.377 49.9387 118 48.1371 118 46.0647C118 42.485 118.765 39.1762 120.296 36.1382C121.827 33.0767 124.088 30.6275 127.079 28.7906C130.069 26.9301 133.661 25.9999 137.853 25.9999C138.936 25.9999 140.09 26.0823 141.315 26.2472C142.563 26.412 143.693 26.6593 144.706 26.989C145.365 27.1774 145.695 27.6484 145.695 28.402C145.695 29.0143 145.46 29.5913 144.989 30.1329C144.541 30.6746 144.011 30.9454 143.399 30.9454C143.211 30.9454 143.069 30.9336 142.975 30.9101C141.75 30.6275 140.702 30.4273 139.831 30.3096C138.96 30.1683 138.041 30.0976 137.076 30.0976C134.085 30.0976 131.541 30.8277 129.445 32.2878C127.349 33.7243 125.783 35.6319 124.747 38.0105C123.711 40.3891 123.193 42.956 123.193 45.7114C123.193 47.7132 123.581 49.2675 124.359 50.3743C125.159 51.4576 126.195 51.9993 127.467 51.9993C128.904 51.9993 130.164 51.4105 131.247 50.233C132.33 49.0555 133.319 47.148 134.214 44.5103C135.109 41.8727 135.992 38.2931 136.864 33.7714C137.005 33.112 137.288 32.6646 137.712 32.4291C138.135 32.1936 138.701 32.0758 139.407 32.0758C141.079 32.0758 141.915 32.6175 141.915 33.7008C141.915 33.8892 141.88 34.1247 141.809 34.4073C141.197 36.6917 140.632 39.2233 140.114 42.0022C139.619 44.7576 139.372 46.8536 139.372 48.2901C139.372 49.5619 139.56 50.4921 139.937 51.0808C140.314 51.646 140.891 51.9287 141.668 51.9287C142.422 51.9287 143.14 51.6814 143.823 51.1868C144.506 50.6687 145.365 49.7974 146.402 48.5728C146.684 48.243 147.002 48.0782 147.355 48.0782C147.662 48.0782 147.897 48.2195 148.062 48.5021C148.25 48.7847 148.344 49.1733 148.344 49.6678C148.344 50.5863 148.121 51.3163 147.673 51.858C146.519 53.2475 145.389 54.3072 144.282 55.0373C143.175 55.7673 141.821 56.1324 140.22 56.1324C138.571 56.1324 137.241 55.6614 136.228 54.7194C135.215 53.7538 134.579 52.3997 134.32 50.6569C132.578 54.3072 130.011 56.1324 126.619 56.1324Z" fill="white"/>
<path d="M147.991 56.1324C147.096 56.1324 146.46 55.6614 146.084 54.7193C145.73 53.7773 145.554 52.2701 145.554 50.1977C145.554 47.1362 145.989 44.2277 146.861 41.4724C147.073 40.7894 147.414 40.2948 147.885 39.9887C148.38 39.659 149.063 39.4941 149.934 39.4941C150.405 39.4941 150.735 39.553 150.923 39.6708C151.112 39.7885 151.206 40.0122 151.206 40.3419C151.206 40.7188 151.029 41.5666 150.676 42.8854C150.44 43.8274 150.252 44.6516 150.111 45.3581C149.969 46.0411 149.852 46.9007 149.757 47.9369C150.393 46.1 151.147 44.5457 152.018 43.2739C152.913 42.0022 153.82 41.0602 154.738 40.4479C155.68 39.8121 156.563 39.4941 157.388 39.4941C158.212 39.4941 158.789 39.6825 159.119 40.0593C159.472 40.4361 159.649 41.0131 159.649 41.7903C159.649 42.5439 159.425 43.9098 158.977 45.888C158.789 46.7358 158.659 47.3717 158.589 47.7956C159.766 44.8989 161.073 42.7912 162.51 41.4724C163.946 40.1535 165.289 39.4941 166.537 39.4941C168.068 39.4941 168.833 40.2595 168.833 41.7903C168.833 42.7087 168.574 44.369 168.056 46.7712C167.608 48.82 167.385 50.1742 167.385 50.8336C167.385 51.7756 167.726 52.2466 168.409 52.2466C168.88 52.2466 169.434 51.964 170.069 51.3988C170.729 50.81 171.6 49.868 172.684 48.5727C172.966 48.243 173.284 48.0782 173.637 48.0782C173.943 48.0782 174.179 48.2195 174.344 48.5021C174.532 48.7847 174.626 49.1733 174.626 49.6678C174.626 50.6098 174.403 51.3399 173.955 51.858C172.943 53.1062 171.848 54.1306 170.67 54.9313C169.516 55.732 168.197 56.1324 166.714 56.1324C165.512 56.1324 164.606 55.7909 163.994 55.1079C163.381 54.4014 163.075 53.3888 163.075 52.0699C163.075 51.4105 163.24 50.233 163.57 48.5374C163.876 47.0538 164.029 46.0293 164.029 45.4641C164.029 45.0873 163.899 44.8989 163.64 44.8989C163.334 44.8989 162.898 45.2993 162.333 46.1C161.768 46.8771 161.203 47.9133 160.638 49.2086C160.072 50.5039 159.613 51.8698 159.26 53.3063C159.001 54.4367 158.695 55.1904 158.341 55.5672C158.012 55.944 157.47 56.1324 156.717 56.1324C155.939 56.1324 155.351 55.7673 154.95 55.0373C154.573 54.2837 154.385 53.377 154.385 52.3172C154.385 51.4223 154.503 50.1271 154.738 48.4314C154.927 46.9242 155.021 45.9351 155.021 45.4641C155.021 45.0873 154.891 44.8989 154.632 44.8989C154.279 44.8989 153.832 45.3228 153.29 46.1706C152.748 47.0184 152.218 48.1017 151.7 49.4206C151.206 50.7394 150.805 52.0346 150.499 53.3063C150.24 54.4132 149.934 55.1668 149.581 55.5672C149.251 55.944 148.721 56.1324 147.991 56.1324Z" fill="white"/>
<path d="M190.629 48.0782C190.935 48.0782 191.17 48.2195 191.335 48.5021C191.524 48.7847 191.618 49.1733 191.618 49.6679C191.618 50.6099 191.394 51.3399 190.947 51.858C189.934 53.1062 188.839 54.1306 187.661 54.9313C186.507 55.732 185.189 56.1324 183.705 56.1324C182.457 56.1324 181.444 55.6849 180.667 54.79C179.325 55.6614 177.923 56.1088 176.463 56.1324C176.157 60.6776 175.462 64.4692 174.379 67.5071C173.296 70.5687 171.706 72.0994 169.61 72.0994C168.339 72.0994 167.396 71.6402 166.784 70.7218C166.172 69.8033 165.866 68.5316 165.866 66.9066C165.866 64.5987 166.396 61.9022 167.455 58.8171C168.515 55.7556 170.152 52.3761 172.366 48.6788C172.366 45.2404 172.342 42.8501 172.295 41.5077C172.271 40.8248 172.542 40.2831 173.107 39.8828C173.673 39.4824 174.379 39.2822 175.227 39.2822C175.721 39.2822 176.075 39.3882 176.287 39.6002C176.522 39.7886 176.652 40.1771 176.675 40.7659C176.675 41.3546 176.687 41.7903 176.711 42.0729C177.464 41.1309 178.206 40.4597 178.936 40.0594C179.666 39.6355 180.443 39.4235 181.268 39.4235C182.586 39.4235 183.658 39.9534 184.482 41.0132C185.33 42.0729 185.754 43.4624 185.754 45.1816C185.754 46.4297 185.554 47.6425 185.153 48.8201C184.753 49.9976 184.2 51.0691 183.493 52.0347C183.988 52.176 184.4 52.2466 184.729 52.2466C185.507 52.2466 186.248 51.964 186.955 51.3988C187.661 50.8336 188.568 49.8916 189.675 48.5728C189.958 48.2431 190.276 48.0782 190.629 48.0782ZM176.64 52.7412C177.488 52.5528 178.265 52.0935 178.971 51.3635C179.701 50.6099 180.278 49.6914 180.702 48.6081C181.126 47.5012 181.338 46.3473 181.338 45.1462C181.338 44.4397 181.197 43.9098 180.914 43.5566C180.632 43.1798 180.255 42.9914 179.784 42.9914C178.936 42.9914 177.912 43.8863 176.711 45.6761C176.687 46.7123 176.675 48.2313 176.675 50.2331C176.675 51.3164 176.664 52.1524 176.64 52.7412ZM169.893 68.6376C170.529 68.6376 171.059 67.2481 171.482 64.4692C171.906 61.7138 172.177 58.2755 172.295 54.1542C171.282 56.5092 170.482 58.7582 169.893 60.9013C169.304 63.0444 169.01 64.846 169.01 66.3061C169.01 67.0597 169.104 67.6367 169.292 68.037C169.457 68.4374 169.657 68.6376 169.893 68.6376Z" fill="white"/>
<path d="M193.102 56.1323C191.641 56.1323 190.476 55.6025 189.604 54.5427C188.733 53.4829 188.297 52.0935 188.297 50.3743C188.297 48.4903 188.733 46.7123 189.604 45.0402C190.476 43.3446 191.63 41.9904 193.066 40.9778C194.526 39.9416 196.069 39.4235 197.694 39.4235C198.212 39.4235 198.553 39.5294 198.718 39.7414C198.907 39.9298 199.06 40.283 199.178 40.8011C199.672 40.7069 200.19 40.6598 200.732 40.6598C201.886 40.6598 202.463 41.072 202.463 41.8962C202.463 42.3908 202.286 43.5683 201.933 45.4288C201.391 48.137 201.12 50.0211 201.12 51.0808C201.12 51.4341 201.203 51.7167 201.368 51.9286C201.556 52.1406 201.792 52.2465 202.074 52.2465C202.522 52.2465 203.063 51.9639 203.699 51.3987C204.335 50.81 205.195 49.868 206.278 48.5727C206.561 48.243 206.878 48.0782 207.232 48.0782C207.538 48.0782 207.773 48.2195 207.938 48.5021C208.127 48.7847 208.221 49.1732 208.221 49.6678C208.221 50.6098 207.997 51.3399 207.55 51.858C206.584 53.059 205.56 54.0717 204.476 54.8959C203.393 55.7202 202.345 56.1323 201.332 56.1323C200.555 56.1323 199.837 55.8733 199.178 55.3552C198.542 54.8135 198.059 54.0835 197.729 53.165C196.505 55.1432 194.962 56.1323 193.102 56.1323ZM194.373 52.5645C194.891 52.5645 195.386 52.2583 195.857 51.646C196.328 51.0337 196.669 50.2212 196.881 49.2086L198.188 42.7087C197.199 42.7323 196.281 43.1091 195.433 43.8391C194.609 44.5456 193.949 45.4876 193.455 46.6652C192.96 47.8427 192.713 49.0908 192.713 50.4096C192.713 51.1397 192.854 51.6813 193.137 52.0346C193.443 52.3878 193.855 52.5645 194.373 52.5645Z" fill="white"/>
<path d="M207.867 56.1324C206.972 56.1324 206.337 55.6614 205.96 54.7193C205.607 53.7773 205.43 52.2701 205.43 50.1977C205.43 47.1362 205.866 44.2277 206.737 41.4724C206.949 40.7894 207.29 40.2948 207.761 39.9887C208.256 39.659 208.939 39.4941 209.81 39.4941C210.281 39.4941 210.611 39.553 210.799 39.6708C210.988 39.7885 211.082 40.0122 211.082 40.3419C211.082 40.7188 210.905 41.5666 210.552 42.8854C210.317 43.8274 210.128 44.6516 209.987 45.3581C209.846 46.0646 209.728 46.936 209.634 47.9722C210.411 45.9469 211.282 44.2984 212.248 43.0267C213.213 41.755 214.155 40.8483 215.074 40.3066C216.016 39.765 216.875 39.4941 217.652 39.4941C219.183 39.4941 219.949 40.2595 219.949 41.7903C219.949 42.0964 219.843 42.8383 219.631 44.0158C219.442 44.9578 219.348 45.5465 219.348 45.782C219.348 46.6063 219.642 47.0184 220.231 47.0184C220.891 47.0184 221.738 46.5003 222.775 45.4641C223.081 45.158 223.399 45.0049 223.728 45.0049C224.035 45.0049 224.27 45.1462 224.435 45.4288C224.623 45.6878 224.718 46.0411 224.718 46.4885C224.718 47.3599 224.482 48.0429 224.011 48.5374C223.352 49.2204 222.574 49.8091 221.68 50.3037C220.808 50.7747 219.878 51.0102 218.889 51.0102C217.641 51.0102 216.687 50.6923 216.028 50.0564C215.392 49.4205 215.074 48.561 215.074 47.4777C215.074 47.1244 215.109 46.7712 215.18 46.4179C215.227 45.9469 215.25 45.629 215.25 45.4641C215.25 45.0873 215.121 44.8989 214.862 44.8989C214.509 44.8989 214.038 45.2993 213.449 46.1C212.884 46.8771 212.318 47.9133 211.753 49.2086C211.188 50.5039 210.729 51.8698 210.375 53.3063C210.116 54.4132 209.81 55.1668 209.457 55.5672C209.127 55.944 208.597 56.1324 207.867 56.1324Z" fill="white"/>
<path d="M234.079 49.1379C234.385 49.1379 234.621 49.2793 234.785 49.5619C234.974 49.8445 235.068 50.233 235.068 50.7276C235.068 51.5754 234.868 52.3055 234.468 52.9178C233.808 53.9304 232.937 54.7193 231.853 55.2846C230.794 55.8498 229.522 56.1324 228.038 56.1324C225.777 56.1324 224.023 55.4612 222.775 54.1188C221.527 52.7529 220.903 50.916 220.903 48.6081C220.903 46.9831 221.244 45.4759 221.927 44.0864C222.61 42.6734 223.552 41.5548 224.753 40.7305C225.978 39.9063 227.355 39.4941 228.886 39.4941C230.252 39.4941 231.347 39.9063 232.171 40.7305C232.996 41.5312 233.408 42.6263 233.408 44.0158C233.408 45.6407 232.819 47.042 231.641 48.2195C230.488 49.3735 228.509 50.2919 225.707 50.9749C226.272 52.0582 227.226 52.5998 228.568 52.5998C229.534 52.5998 230.323 52.3761 230.935 51.9286C231.571 51.4812 232.301 50.7276 233.125 49.6678C233.408 49.3146 233.726 49.1379 234.079 49.1379ZM228.286 42.956C227.414 42.956 226.672 43.4623 226.06 44.475C225.471 45.4877 225.177 46.7123 225.177 48.1488V48.2195C226.566 47.8898 227.662 47.3952 228.462 46.7358C229.263 46.0764 229.663 45.311 229.663 44.4397C229.663 43.9922 229.534 43.639 229.275 43.3799C229.039 43.0973 228.709 42.956 228.286 42.956Z" fill="white"/>
</svg>
